<svg width="252" height="254" viewBox="0 0 252 254" fill="none" xmlns="http://www.w3.org/2000/svg">
<path d="M230.099 111.244L239.059 116.298C240.898 117.342 242.427 118.855 243.491 120.683C244.555 122.512 245.116 124.59 245.116 126.707C245.116 128.823 244.555 130.901 243.491 132.73C242.427 134.558 240.898 136.071 239.059 137.115L137.505 195.377C133.873 197.477 129.752 198.582 125.558 198.582C121.364 198.582 117.243 197.477 113.61 195.377L12.0568 137.115C10.2181 136.071 8.68869 134.558 7.62465 132.73C6.56062 130.901 6 128.823 6 126.707C6 124.59 6.56062 122.512 7.62465 120.683C8.68869 118.855 10.2181 117.342 12.0568 116.298L21.0174 111.244" stroke="black" stroke-width="9.49745" stroke-linecap="round" stroke-linejoin="round"/>
<path d="M230.099 161.312L239.059 166.366C240.898 167.41 242.427 168.923 243.491 170.751C244.555 172.58 245.116 174.658 245.116 176.774C245.116 178.891 244.555 180.969 243.491 182.798C242.427 184.626 240.898 186.139 239.059 187.183L137.505 245.444C133.873 247.544 129.752 248.65 125.558 248.65C121.364 248.65 117.243 247.544 113.61 245.444L12.0568 187.183C10.2181 186.139 8.68869 184.626 7.62465 182.798C6.56062 180.969 6 178.891 6 176.774C6 174.658 6.56062 172.58 7.62465 170.751C8.68869 168.923 10.2181 167.41 12.0568 166.366L21.0174 161.312" stroke="black" stroke-width="9.49745" stroke-linecap="round" stroke-linejoin="round"/>
<path d="M137.505 146.545C133.873 148.645 129.752 149.751 125.558 149.751C121.364 149.751 117.243 148.645 113.61 146.545L12.0568 88.2837C10.2181 87.2403 8.68869 85.7271 7.62465 83.8987C6.56062 82.0702 6 79.9918 6 77.8755C6 75.7593 6.56062 73.6809 7.62465 71.8524C8.68869 70.0239 10.2181 68.5108 12.0568 67.4674L113.61 9.20559C117.243 7.10557 121.364 6 125.558 6C129.752 6 133.873 7.10557 137.505 9.20559L239.059 67.4674C240.898 68.5108 242.427 70.0239 243.491 71.8524C244.555 73.6809 245.116 75.7593 245.116 77.8755C245.116 79.9918 244.555 82.0702 243.491 83.8987C242.427 85.7271 240.898 87.2403 239.059 88.2837L137.505 146.545Z" stroke="#1183CD" stroke-width="12" stroke-linecap="round" stroke-linejoin="round"/>
</svg>
