<svg width="72" height="104" viewBox="0 0 72 104" fill="none" xmlns="http://www.w3.org/2000/svg">
<path d="M44.25 0C53.7769 0 61.5 7.72309 61.5 17.25C61.5 26.7769 53.7769 34.5 44.25 34.5C42.9159 34.5 41.6172 34.3482 40.3701 34.0615L30.7041 49.4551C33.0784 52.4105 34.5 56.164 34.5 60.25C34.5 61.8547 34.2791 63.4078 33.8691 64.8818L57.5371 82.1533L50.4629 91.8467L26.8262 74.5977C24.0864 76.4299 20.7935 77.5 17.25 77.5C7.72309 77.5 0 69.7769 0 60.25C0 50.7231 7.72309 43 17.25 43C18.3284 43 19.3836 43.0997 20.4072 43.2891L30.3467 27.4609C28.2435 24.602 27 21.0714 27 17.25C27 7.72309 34.7231 0 44.25 0Z" fill="#F9F9F9"/>
<path d="M71.5 86.25C71.5 95.7769 63.7769 103.5 54.25 103.5C44.7231 103.5 37 95.7769 37 86.25C37 76.7231 44.7231 69 54.25 69C63.7769 69 71.5 76.7231 71.5 86.25Z" fill="#1183CD"/>
</svg>
